HIERARCHY
ROOT Hips
{
	OFFSET 0.000000 0.000000 0.000000
	CHANNELS 6 Xposition Yposition Zposition Zrotation Yrotation Xrotation 
	JOINT LHipJoint
	{
		OFFSET 0.000000 0.000000 0.000000
		CHANNELS 3 Zrotation Yrotation Xrotation
		JOINT LeftUpLeg
		{
			OFFSET 1.363060 -1.794630 0.839290
			CHANNELS 3 Zrotation Yrotation Xrotation
			JOINT LeftLeg
			{
				OFFSET 2.448110 -6.726130 0.000000
				CHANNELS 3 Zrotation Yrotation Xrotation
				JOINT LeftFoot
				{
					OFFSET 2.562200 -7.039590 0.000000
					CHANNELS 3 Zrotation Yrotation Xrotation
					JOINT LeftToeBase
					{
						OFFSET 0.157640 -0.433110 2.322550
						CHANNELS 3 Zrotation Yrotation Xrotation
						End Site
						{
							OFFSET 0.000000 0.000000 0.000000
						}
					}
				}
			}
		}
	}
	JOINT RHipJoint
	{
		OFFSET 0.000000 0.000000 0.000000
		CHANNELS 3 Zrotation Yrotation Xrotation
		JOINT RightUpLeg
		{
			OFFSET -1.305520 -1.794630 0.839290
			CHANNELS 3 Zrotation Yrotation Xrotation
			JOINT RightLeg
			{
				OFFSET -2.542530 -6.985550 0.000000
				CHANNELS 3 Zrotation Yrotation Xrotation
				JOINT RightFoot
				{
					OFFSET -2.568260 -7.056230 0.000000
					CHANNELS 3 Zrotation Yrotation Xrotation
					JOINT RightToeBase
					{
						OFFSET -0.164730 -0.452590 2.363150
						CHANNELS 3 Zrotation Yrotation Xrotation
						End Site
						{
							OFFSET 0.000000 0.000000 0.000000
						}
					}
				}
			}
		}
	}
}
MOTION
Frames: 24
Frame Time: 0.008333
-2.110699 16.561875 0.107721 -143.401281 82.645310 -142.907072 -9.606388 1.181646 -0.038446 -22.638499 15.299140 -31.312951 -2.217067 0.145507 24.590301 3.377129 16.271589 -16.161597 177.595800 -0.000000 -12.251900 11.281654 -4.364134 -2.393913 -5.602156 -22.187678 -2.483303 -0.417803 -3.418624 49.603030 -1.124200 7.791260 30.280081 5.255200 0.000000 -87.737600
-1.967581 16.475762 0.072468 -147.096591 82.621154 -146.703297 -9.562131 1.243696 -0.193656 -23.185987 15.478510 -32.026855 -2.239824 0.379649 27.434458 3.340938 15.711192 -17.522250 177.209800 -0.000000 -13.515200 11.420141 -4.145949 -2.455348 -6.425499 -22.286267 -4.049479 -0.612596 -3.562528 53.224657 -1.441672 4.734139 31.029759 3.632000 -0.000000 -82.940600
-1.830973 16.389595 0.036568 -150.995973 82.536500 -150.658688 -9.545886 1.291155 -0.343220 -23.708417 15.526073 -32.708674 -2.248929 0.610654 30.220607 3.326021 15.254054 -18.928355 176.824600 0.000000 -14.425300 11.520570 -3.923784 -2.514527 -7.114363 -22.203417 -5.674776 -0.797030 -3.733793 56.815059 -1.724390 1.696669 31.138522 1.916500 0.000000 -77.847600
-1.700769 16.305228 -0.000511 -154.875639 82.390502 -154.547584 -9.552136 1.328488 -0.484891 -24.195729 15.434742 -33.311015 -2.246686 0.833084 32.858946 3.339191 14.945241 -20.351015 176.434101 0.000000 -15.091500 11.590931 -3.702456 -2.568989 -7.657427 -21.922474 -7.357508 -0.987237 -3.929078 60.331833 -1.957699 -1.052727 30.635193 0.341500 -0.000001 -72.976500
-1.576619 16.224421 -0.039067 -158.537944 82.180926 -158.170639 -9.570752 1.359752 -0.617324 -24.643654 15.206688 -33.798993 -2.235722 1.041979 35.277309 3.382545 14.805127 -21.753760 176.034100 0.000001 -15.499699 11.643909 -3.485563 -2.613972 -8.047713 -21.432968 -9.097010 -1.194165 -4.140856 63.733073 -2.132164 -3.318429 29.599926 -0.921100 0.000000 -68.678900
-1.457926 16.148915 -0.079241 -161.837625 81.901928 -161.380376 -9.591724 1.386117 -0.739908 -25.050781 14.849907 -34.150032 -2.218451 1.232124 37.424159 3.454703 14.830227 -23.108856 175.620500 0.000000 -15.694500 11.691248 -3.276889 -2.643727 -8.282851 -20.732305 -10.888963 -1.421568 -4.360343 66.975747 -2.242815 -4.995370 28.127236 -1.785300 0.000000 -65.085600
-1.343881 16.080312 -0.121125 -164.704220 81.546114 -164.104855 -9.608416 1.406244 -0.852228 -25.417875 14.376476 -34.352264 -2.196875 1.398706 39.268008 3.550850 14.996579 -24.391830 175.194200 0.000000 -15.732799 11.740163 -3.080211 -2.652337 -8.368553 -19.826217 -12.721578 -1.666459 -4.578925 70.013343 -2.288562 -6.060623 26.308659 -2.244001 -0.000000 -62.231300
-1.233583 16.019913 -0.164717 -167.133336 81.105413 -166.340731 -9.618011 1.418037 -0.953503 -25.747955 13.799900 -34.399844 -2.173093 1.537877 40.792558 3.663415 15.264287 -25.581619 174.763300 -0.000000 -15.678900 11.792721 -2.898230 -2.634924 -8.321382 -18.728988 -14.575455 -1.920924 -4.788915 72.798743 -2.271167 -6.550751 24.218222 -2.346700 0.000000 -59.998201
-1.125995 15.968845 -0.210020 -169.171082 80.572436 -168.136144 -9.620215 1.420398 -1.042565 -26.045720 13.135234 -34.292127 -2.149651 1.647439 41.993625 3.782690 15.582254 -26.658227 174.342900 -0.000001 -15.591600 11.847137 -2.731442 -2.587892 -8.167153 -17.462600 -16.423997 -2.173142 -4.983005 75.282877 -2.196577 -6.549964 21.930583 -2.180200 -0.000001 -58.300300
-1.020019 15.928074 -0.257109 -170.886667 79.940911 -169.563968 -9.615473 1.413992 -1.117258 -26.317513 12.396827 -34.031030 -2.129599 1.726560 42.872397 3.898280 15.895261 -27.604236 173.954200 0.000000 -15.525400 11.899697 -2.577889 -2.509446 -7.938052 -16.057309 -18.240588 -2.409600 -5.155113 77.423130 -2.074466 -6.172700 19.512558 -1.846300 0.000000 -56.920300
-0.914677 15.898212 -0.306113 -172.351538 79.204072 -170.700635 -9.604354 1.401107 -1.175515 -26.569685 11.600418 -33.620254 -2.116081 1.775883 43.437404 3.999612 16.147557 -28.405004 173.621199 0.000000 -15.508700 11.945983 -2.433547 -2.399501 -7.666885 -14.549876 -19.998453 -2.616235 -5.299838 79.182193 -1.920741 -5.562945 17.059379 -1.449800 0.000000 -55.790100
-0.809001 15.879743 -0.357352 -173.618774 78.356868 -171.603485 -9.586864 1.385101 -1.214627 -26.807375 10.761162 -33.065734 -2.112170 1.796699 43.697260 4.077314 16.289680 -29.048481 173.368100 0.000000 -15.556400 11.981779 -2.293002 -2.259651 -7.381823 -12.982674 -21.679940 -2.781645 -5.413329 80.536499 -1.754921 -4.874297 14.667706 -1.076899 0.000000 -54.766300
-0.702285 15.873025 -0.411290 -174.711757 77.395327 -172.300328 -9.563036 1.369495 -1.231854 -27.030659 9.895291 -32.374198 -2.120400 1.790527 43.660805 4.123738 16.282153 -29.525949 173.215400 -0.000001 -15.660700 12.003312 -2.151019 -2.092304 -7.100083 -11.398070 -23.274447 -2.898663 -5.492777 81.474798 -1.598715 -4.258866 12.439286 -0.786200 0.000000 -53.768000
-0.594076 15.878192 -0.468568 -175.634037 76.318366 -172.798065 -9.533111 1.357323 -1.225461 -27.234904 9.018981 -31.554445 -2.142684 1.759155 43.337422 4.133451 16.098600 -29.832585 173.176699 0.000000 -15.800201 12.007420 -2.002630 -1.901509 -6.828387 -9.835950 -24.778414 -2.965392 -5.536591 81.999293 -1.472136 -3.847654 10.458923 -0.605300 0.000000 -52.759900
-0.484162 15.895173 -0.529914 -176.371886 75.127110 -173.087379 -9.498211 1.350675 -1.194240 -27.408704 8.148643 -30.614486 -2.179998 1.703920 42.734649 4.103343 15.726839 -29.967200 173.257600 -0.000000 -15.942801 11.991520 -1.844905 -1.691601 -6.563173 -8.329326 -26.191231 -2.984203 -5.544232 82.121474 -1.390529 -3.737508 8.779093 -0.536700 -0.000000 -51.742800
-0.372614 15.923684 -0.596091 -176.909589 73.826614 -173.156200 -9.460622 1.350556 -1.138332 -27.535070 7.298323 -29.562211 -2.232303 1.626052 41.859801 4.032696 15.169785 -29.931676 173.454400 -0.000000 -16.054600 11.953366 -1.676316 -1.468124 -6.293476 -6.902408 -27.512113 -2.960045 -5.516028 81.858739 -1.363033 -3.983931 7.411218 -0.569099 0.000000 -50.731200
-0.259682 15.963234 -0.667898 -177.234566 72.424333 -172.996092 -9.424041 1.356740 -1.058669 -27.593822 6.478802 -28.405135 -2.298379 1.526334 40.719704 3.923030 14.443689 -29.731120 173.755399 -0.000000 -16.105600 11.890735 -1.497149 -1.237040 -6.003864 -5.570487 -28.739098 -2.898468 -5.453072 81.229893 -1.392736 -4.601866 6.326113 -0.686900 0.000000 -49.731600
-0.145799 16.013027 -0.745970 -177.344894 70.928700 -172.610894 -9.393772 1.368097 -0.955838 -27.562782 5.695198 -27.149772 -2.375612 1.405277 39.322314 3.777712 13.575823 -29.372475 174.142500 -0.000000 -16.072700 11.801215 -1.309424 -1.003886 -5.677595 -4.340608 -29.867481 -2.804412 -5.356813 80.251536 -1.477894 -5.571242 5.464196 -0.874800 0.000000 -48.733300
-0.031496 16.072112 -0.830954 -177.246110 69.351300 -172.010770 -9.376839 1.382662 -0.831006 -27.419446 4.946287 -25.804993 -2.460204 1.263725 37.678574 3.601458 12.600845 -28.864203 174.593900 0.000000 -15.944100 11.681599 -1.115245 -0.774485 -5.297612 -3.210943 -30.891012 -2.681832 -5.228392 78.935343 -1.613253 -6.844015 4.748854 -1.117800 0.000000 -47.707000
0.082676 16.139261 -0.923220 -176.954357 67.702446 -171.217370 -9.381547 1.397997 -0.683735 -27.143987 4.223193 -24.381305 -2.546842 1.102756 35.804047 3.399931 11.557445 -28.215300 175.086700 -0.000001 -15.718201 11.528204 -0.918138 -0.552923 -4.850080 -2.173686 -31.801431 -2.533839 -5.068816 77.287191 -1.791404 -8.352578 4.101445 -1.397600 0.000000 -46.611299
0.196166 16.213087 -1.022939 -176.494700 65.991817 -170.259989 -9.416902 1.411408 -0.512873 -26.721255 3.510258 -22.892842 -2.628954 0.924313 33.720899 3.179321 10.485093 -27.435070 175.599000 -0.000000 -15.402800 11.336946 -0.722103 -0.342048 -4.325649 -1.216049 -32.590185 -2.363197 -4.878870 75.307307 -2.003460 -10.014661 3.456324 -1.692500 -0.000000 -45.398101
0.308530 16.292180 -1.130092 -175.895778 64.226529 -169.170977 -9.492103 1.420105 -0.316369 -26.140333 2.787449 -21.356871 -2.698831 0.731286 31.458014 2.945548 9.419120 -26.532041 176.112100 0.000000 -15.014099 11.103613 -0.532362 -0.142610 -3.718961 -0.321075 -33.248221 -2.172582 -4.659271 72.989510 -2.240046 -11.742577 2.774446 -1.979000 -0.000000 -44.024000
0.419471 16.374877 -1.244221 -175.197687 62.410588 -167.991858 -9.613943 1.422361 -0.091513 -25.402379 2.029996 -19.793565 -2.748409 0.528105 29.052509 2.704688 8.391072 -25.514968 176.610400 0.000000 -14.569399 10.825578 -0.354389 0.046232 -3.035294 0.526634 -33.769427 -1.965459 -4.411365 70.327711 -2.491551 -13.448797 2.051316 -2.237400 -0.000000 -42.470300
0.528840 16.459547 -1.364615 -174.444248 60.544798 -166.767708 -9.785858 1.417954 0.164565 -24.517141 1.214113 -18.222903 -2.770111 0.320452 26.546230 2.462270 7.425091 -24.391840 177.082600 0.000000 -14.088299 10.502622 -0.194514 0.227587 -2.287414 1.340665 -34.148923 -1.745985 -4.137032 67.314958 -2.748927 -15.057613 1.322971 -2.460700 0.000000 -40.772100
